<mxfile host="app.diagrams.net" modified="2022-07-19T07:25:54.996Z" agent="5.0 (Macintosh; Intel Mac OS X 10_15_7) AppleWebKit/537.36 (KHTML, like Gecko) Chrome/103.0.0.0 Safari/537.36" etag="lWL_MoBstgZYzq-FeURG" version="20.1.1" type="github">
  <diagram id="lpX-vvznMUxxez6qVe82" name="Page-1">
    <mxGraphModel dx="1298" dy="834" grid="1" gridSize="10" guides="1" tooltips="1" connect="1" arrows="1" fold="1" page="1" pageScale="1" pageWidth="827" pageHeight="1169" math="0" shadow="0">
      <root>
        <mxCell id="0" />
        <mxCell id="1" parent="0" />
        <mxCell id="FgFwYtZASVYuj0qQYSt3-1" value="" style="rounded=0;whiteSpace=wrap;html=1;strokeColor=#d6b656;fillColor=#fff2cc;" vertex="1" parent="1">
          <mxGeometry x="1315" y="510" width="150" height="270" as="geometry" />
        </mxCell>
        <mxCell id="FgFwYtZASVYuj0qQYSt3-2" style="edgeStyle=orthogonalEdgeStyle;rounded=1;jumpStyle=arc;orthogonalLoop=1;jettySize=auto;html=1;exitX=1;exitY=0.5;exitDx=0;exitDy=0;entryX=0;entryY=0.75;entryDx=0;entryDy=0;" edge="1" parent="1" source="FgFwYtZASVYuj0qQYSt3-74" target="FgFwYtZASVYuj0qQYSt3-71">
          <mxGeometry relative="1" as="geometry" />
        </mxCell>
        <mxCell id="FgFwYtZASVYuj0qQYSt3-3" value="" style="rounded=0;whiteSpace=wrap;html=1;fillColor=#f8cecc;strokeColor=#b85450;" vertex="1" parent="1">
          <mxGeometry x="835" y="280" width="155" height="250" as="geometry" />
        </mxCell>
        <mxCell id="FgFwYtZASVYuj0qQYSt3-4" value="" style="rounded=0;whiteSpace=wrap;html=1;fillColor=#fff2cc;strokeColor=#d6b656;" vertex="1" parent="1">
          <mxGeometry x="600" y="250" width="200" height="700" as="geometry" />
        </mxCell>
        <mxCell id="FgFwYtZASVYuj0qQYSt3-5" value="" style="rounded=0;whiteSpace=wrap;html=1;fillColor=#fff2cc;strokeColor=#d6b656;" vertex="1" parent="1">
          <mxGeometry x="340" y="155" width="180" height="725" as="geometry" />
        </mxCell>
        <mxCell id="FgFwYtZASVYuj0qQYSt3-6" value="hbase" style="shape=cylinder3;whiteSpace=wrap;html=1;boundedLbl=1;backgroundOutline=1;size=15;" vertex="1" parent="1">
          <mxGeometry x="610" y="140" width="60" height="80" as="geometry" />
        </mxCell>
        <mxCell id="FgFwYtZASVYuj0qQYSt3-7" style="edgeStyle=orthogonalEdgeStyle;rounded=0;orthogonalLoop=1;jettySize=auto;html=1;exitX=0.5;exitY=1;exitDx=0;exitDy=0;entryX=0.5;entryY=0;entryDx=0;entryDy=0;" edge="1" parent="1" source="FgFwYtZASVYuj0qQYSt3-9" target="FgFwYtZASVYuj0qQYSt3-11">
          <mxGeometry relative="1" as="geometry" />
        </mxCell>
        <mxCell id="FgFwYtZASVYuj0qQYSt3-8" style="edgeStyle=orthogonalEdgeStyle;rounded=1;orthogonalLoop=1;jettySize=auto;html=1;exitX=1;exitY=0.5;exitDx=0;exitDy=0;entryX=0;entryY=0;entryDx=0;entryDy=52.5;entryPerimeter=0;" edge="1" parent="1" source="FgFwYtZASVYuj0qQYSt3-9" target="FgFwYtZASVYuj0qQYSt3-6">
          <mxGeometry relative="1" as="geometry" />
        </mxCell>
        <mxCell id="FgFwYtZASVYuj0qQYSt3-9" value="获取全量area" style="rounded=1;whiteSpace=wrap;html=1;" vertex="1" parent="1">
          <mxGeometry x="370.5" y="220" width="119.5" height="40" as="geometry" />
        </mxCell>
        <mxCell id="FgFwYtZASVYuj0qQYSt3-10" style="edgeStyle=orthogonalEdgeStyle;rounded=1;orthogonalLoop=1;jettySize=auto;html=1;exitX=0.5;exitY=1;exitDx=0;exitDy=0;entryX=0.5;entryY=0;entryDx=0;entryDy=0;" edge="1" parent="1" source="FgFwYtZASVYuj0qQYSt3-11" target="FgFwYtZASVYuj0qQYSt3-14">
          <mxGeometry relative="1" as="geometry" />
        </mxCell>
        <mxCell id="FgFwYtZASVYuj0qQYSt3-11" value="断点续传&lt;br&gt;lastSyncedRowKey" style="rounded=1;whiteSpace=wrap;html=1;" vertex="1" parent="1">
          <mxGeometry x="370.5" y="277" width="120" height="50" as="geometry" />
        </mxCell>
        <mxCell id="FgFwYtZASVYuj0qQYSt3-12" style="edgeStyle=orthogonalEdgeStyle;rounded=1;orthogonalLoop=1;jettySize=auto;html=1;exitX=1;exitY=0.5;exitDx=0;exitDy=0;entryX=0;entryY=0.5;entryDx=0;entryDy=0;" edge="1" parent="1" source="FgFwYtZASVYuj0qQYSt3-14" target="FgFwYtZASVYuj0qQYSt3-16">
          <mxGeometry relative="1" as="geometry" />
        </mxCell>
        <mxCell id="FgFwYtZASVYuj0qQYSt3-13" style="edgeStyle=orthogonalEdgeStyle;rounded=1;orthogonalLoop=1;jettySize=auto;html=1;exitX=0.5;exitY=1;exitDx=0;exitDy=0;entryX=0.5;entryY=0;entryDx=0;entryDy=0;" edge="1" parent="1" source="FgFwYtZASVYuj0qQYSt3-14" target="FgFwYtZASVYuj0qQYSt3-19">
          <mxGeometry relative="1" as="geometry" />
        </mxCell>
        <mxCell id="FgFwYtZASVYuj0qQYSt3-14" value="traverse area&amp;nbsp;&lt;br&gt;get hotel list by feed5&amp;nbsp;" style="rounded=1;whiteSpace=wrap;html=1;" vertex="1" parent="1">
          <mxGeometry x="369.5" y="347" width="120.5" height="43" as="geometry" />
        </mxCell>
        <mxCell id="FgFwYtZASVYuj0qQYSt3-15" style="edgeStyle=orthogonalEdgeStyle;rounded=1;orthogonalLoop=1;jettySize=auto;html=1;exitX=1;exitY=0.5;exitDx=0;exitDy=0;entryX=0;entryY=0.5;entryDx=0;entryDy=0;" edge="1" parent="1" source="FgFwYtZASVYuj0qQYSt3-16" target="FgFwYtZASVYuj0qQYSt3-25">
          <mxGeometry relative="1" as="geometry" />
        </mxCell>
        <mxCell id="FgFwYtZASVYuj0qQYSt3-16" value="GetHotelList" style="rounded=1;whiteSpace=wrap;html=1;" vertex="1" parent="1">
          <mxGeometry x="625" y="280" width="110" height="40" as="geometry" />
        </mxCell>
        <mxCell id="FgFwYtZASVYuj0qQYSt3-17" value="" style="rounded=1;whiteSpace=wrap;html=1;" vertex="1" parent="1">
          <mxGeometry x="620" y="350" width="140" height="430" as="geometry" />
        </mxCell>
        <mxCell id="FgFwYtZASVYuj0qQYSt3-18" style="edgeStyle=orthogonalEdgeStyle;rounded=1;orthogonalLoop=1;jettySize=auto;html=1;exitX=1;exitY=0.5;exitDx=0;exitDy=0;" edge="1" parent="1" source="FgFwYtZASVYuj0qQYSt3-19" target="FgFwYtZASVYuj0qQYSt3-17">
          <mxGeometry relative="1" as="geometry" />
        </mxCell>
        <mxCell id="FgFwYtZASVYuj0qQYSt3-19" value="sync each hotel" style="rounded=1;whiteSpace=wrap;html=1;" vertex="1" parent="1">
          <mxGeometry x="369.5" y="420" width="120" height="50" as="geometry" />
        </mxCell>
        <mxCell id="FgFwYtZASVYuj0qQYSt3-20" style="edgeStyle=orthogonalEdgeStyle;rounded=1;orthogonalLoop=1;jettySize=auto;html=1;exitX=0.5;exitY=1;exitDx=0;exitDy=0;entryX=0.5;entryY=0;entryDx=0;entryDy=0;" edge="1" parent="1" source="FgFwYtZASVYuj0qQYSt3-21" target="FgFwYtZASVYuj0qQYSt3-24">
          <mxGeometry relative="1" as="geometry" />
        </mxCell>
        <mxCell id="FgFwYtZASVYuj0qQYSt3-21" value="遍历多语言" style="rounded=1;whiteSpace=wrap;html=1;" vertex="1" parent="1">
          <mxGeometry x="645" y="390" width="90" height="30" as="geometry" />
        </mxCell>
        <mxCell id="FgFwYtZASVYuj0qQYSt3-22" style="edgeStyle=orthogonalEdgeStyle;rounded=1;orthogonalLoop=1;jettySize=auto;html=1;exitX=0.5;exitY=1;exitDx=0;exitDy=0;entryX=0.5;entryY=0;entryDx=0;entryDy=0;" edge="1" parent="1" source="FgFwYtZASVYuj0qQYSt3-24" target="FgFwYtZASVYuj0qQYSt3-29">
          <mxGeometry relative="1" as="geometry" />
        </mxCell>
        <mxCell id="FgFwYtZASVYuj0qQYSt3-23" style="edgeStyle=orthogonalEdgeStyle;rounded=1;orthogonalLoop=1;jettySize=auto;html=1;exitX=1;exitY=0.5;exitDx=0;exitDy=0;entryX=0;entryY=0.5;entryDx=0;entryDy=0;" edge="1" parent="1" source="FgFwYtZASVYuj0qQYSt3-24" target="FgFwYtZASVYuj0qQYSt3-26">
          <mxGeometry relative="1" as="geometry" />
        </mxCell>
        <mxCell id="FgFwYtZASVYuj0qQYSt3-24" value="下载静态信息" style="rounded=1;whiteSpace=wrap;html=1;" vertex="1" parent="1">
          <mxGeometry x="645" y="440" width="90" height="30" as="geometry" />
        </mxCell>
        <mxCell id="FgFwYtZASVYuj0qQYSt3-25" value="feed5" style="rounded=1;whiteSpace=wrap;html=1;" vertex="1" parent="1">
          <mxGeometry x="860" y="330" width="110" height="40" as="geometry" />
        </mxCell>
        <mxCell id="FgFwYtZASVYuj0qQYSt3-26" value="feed19" style="rounded=1;whiteSpace=wrap;html=1;" vertex="1" parent="1">
          <mxGeometry x="860" y="395" width="110" height="35" as="geometry" />
        </mxCell>
        <mxCell id="FgFwYtZASVYuj0qQYSt3-27" style="edgeStyle=orthogonalEdgeStyle;rounded=1;orthogonalLoop=1;jettySize=auto;html=1;exitX=1;exitY=0.5;exitDx=0;exitDy=0;entryX=0;entryY=0.75;entryDx=0;entryDy=0;" edge="1" parent="1" source="FgFwYtZASVYuj0qQYSt3-29" target="FgFwYtZASVYuj0qQYSt3-30">
          <mxGeometry relative="1" as="geometry" />
        </mxCell>
        <mxCell id="FgFwYtZASVYuj0qQYSt3-28" style="edgeStyle=orthogonalEdgeStyle;rounded=1;orthogonalLoop=1;jettySize=auto;html=1;exitX=0.5;exitY=1;exitDx=0;exitDy=0;" edge="1" parent="1" source="FgFwYtZASVYuj0qQYSt3-29" target="FgFwYtZASVYuj0qQYSt3-34">
          <mxGeometry relative="1" as="geometry" />
        </mxCell>
        <mxCell id="FgFwYtZASVYuj0qQYSt3-29" value="下载附近信息" style="rounded=1;whiteSpace=wrap;html=1;" vertex="1" parent="1">
          <mxGeometry x="645" y="492" width="90" height="30" as="geometry" />
        </mxCell>
        <mxCell id="FgFwYtZASVYuj0qQYSt3-30" value="feed31" style="rounded=1;whiteSpace=wrap;html=1;" vertex="1" parent="1">
          <mxGeometry x="860" y="440" width="110" height="35" as="geometry" />
        </mxCell>
        <mxCell id="FgFwYtZASVYuj0qQYSt3-31" style="edgeStyle=orthogonalEdgeStyle;rounded=1;orthogonalLoop=1;jettySize=auto;html=1;exitX=1;exitY=0.5;exitDx=0;exitDy=0;entryX=0;entryY=0.5;entryDx=0;entryDy=0;entryPerimeter=0;" edge="1" parent="1" source="FgFwYtZASVYuj0qQYSt3-34" target="FgFwYtZASVYuj0qQYSt3-35">
          <mxGeometry relative="1" as="geometry">
            <mxPoint x="940" y="650" as="targetPoint" />
          </mxGeometry>
        </mxCell>
        <mxCell id="FgFwYtZASVYuj0qQYSt3-32" value="补充area" style="edgeLabel;html=1;align=center;verticalAlign=middle;resizable=0;points=[];" vertex="1" connectable="0" parent="FgFwYtZASVYuj0qQYSt3-31">
          <mxGeometry x="0.2561" y="1" relative="1" as="geometry">
            <mxPoint x="1" as="offset" />
          </mxGeometry>
        </mxCell>
        <mxCell id="FgFwYtZASVYuj0qQYSt3-33" style="edgeStyle=orthogonalEdgeStyle;rounded=1;orthogonalLoop=1;jettySize=auto;html=1;exitX=0.5;exitY=1;exitDx=0;exitDy=0;entryX=0.5;entryY=0;entryDx=0;entryDy=0;" edge="1" parent="1" source="FgFwYtZASVYuj0qQYSt3-34" target="FgFwYtZASVYuj0qQYSt3-40">
          <mxGeometry relative="1" as="geometry" />
        </mxCell>
        <mxCell id="FgFwYtZASVYuj0qQYSt3-34" value="解析适配下载信息&lt;br&gt;" style="rounded=1;whiteSpace=wrap;html=1;" vertex="1" parent="1">
          <mxGeometry x="635" y="560" width="110" height="35" as="geometry" />
        </mxCell>
        <mxCell id="FgFwYtZASVYuj0qQYSt3-35" value="hbase" style="shape=cylinder3;whiteSpace=wrap;html=1;boundedLbl=1;backgroundOutline=1;size=15;" vertex="1" parent="1">
          <mxGeometry x="880" y="580" width="60" height="80" as="geometry" />
        </mxCell>
        <mxCell id="FgFwYtZASVYuj0qQYSt3-36" style="edgeStyle=orthogonalEdgeStyle;rounded=1;orthogonalLoop=1;jettySize=auto;html=1;exitX=1;exitY=0.5;exitDx=0;exitDy=0;entryX=0;entryY=1;entryDx=0;entryDy=-15;entryPerimeter=0;" edge="1" parent="1" source="FgFwYtZASVYuj0qQYSt3-38" target="FgFwYtZASVYuj0qQYSt3-35">
          <mxGeometry relative="1" as="geometry" />
        </mxCell>
        <mxCell id="FgFwYtZASVYuj0qQYSt3-37" style="edgeStyle=orthogonalEdgeStyle;rounded=1;orthogonalLoop=1;jettySize=auto;html=1;exitX=0.5;exitY=1;exitDx=0;exitDy=0;entryX=0.5;entryY=0;entryDx=0;entryDy=0;" edge="1" parent="1" source="FgFwYtZASVYuj0qQYSt3-38" target="FgFwYtZASVYuj0qQYSt3-42">
          <mxGeometry relative="1" as="geometry" />
        </mxCell>
        <mxCell id="FgFwYtZASVYuj0qQYSt3-38" value="与hbase做diff&lt;br&gt;upsert&amp;nbsp;" style="rounded=1;whiteSpace=wrap;html=1;" vertex="1" parent="1">
          <mxGeometry x="630" y="670" width="120" height="40" as="geometry" />
        </mxCell>
        <mxCell id="FgFwYtZASVYuj0qQYSt3-39" style="edgeStyle=orthogonalEdgeStyle;rounded=1;orthogonalLoop=1;jettySize=auto;html=1;exitX=0.5;exitY=1;exitDx=0;exitDy=0;entryX=0.5;entryY=0;entryDx=0;entryDy=0;" edge="1" parent="1" target="FgFwYtZASVYuj0qQYSt3-38">
          <mxGeometry relative="1" as="geometry">
            <mxPoint x="690" y="640" as="sourcePoint" />
          </mxGeometry>
        </mxCell>
        <mxCell id="FgFwYtZASVYuj0qQYSt3-40" value="过滤&lt;br&gt;非MasterRoom" style="rounded=1;whiteSpace=wrap;html=1;" vertex="1" parent="1">
          <mxGeometry x="630" y="610" width="120" height="40" as="geometry" />
        </mxCell>
        <mxCell id="FgFwYtZASVYuj0qQYSt3-41" style="edgeStyle=orthogonalEdgeStyle;rounded=1;orthogonalLoop=1;jettySize=auto;html=1;exitX=1;exitY=0.5;exitDx=0;exitDy=0;entryX=0;entryY=0.5;entryDx=0;entryDy=0;" edge="1" parent="1" source="FgFwYtZASVYuj0qQYSt3-42" target="FgFwYtZASVYuj0qQYSt3-52">
          <mxGeometry relative="1" as="geometry" />
        </mxCell>
        <mxCell id="FgFwYtZASVYuj0qQYSt3-42" value="写入raw MQ" style="rounded=1;whiteSpace=wrap;html=1;" vertex="1" parent="1">
          <mxGeometry x="635" y="730" width="110" height="28" as="geometry" />
        </mxCell>
        <mxCell id="FgFwYtZASVYuj0qQYSt3-43" value="SynHotel" style="text;html=1;strokeColor=none;fillColor=none;align=center;verticalAlign=middle;whiteSpace=wrap;rounded=0;" vertex="1" parent="1">
          <mxGeometry x="640" y="350" width="60" height="30" as="geometry" />
        </mxCell>
        <mxCell id="FgFwYtZASVYuj0qQYSt3-44" value="listingcron-server" style="text;html=1;strokeColor=none;fillColor=none;align=center;verticalAlign=middle;whiteSpace=wrap;rounded=0;" vertex="1" parent="1">
          <mxGeometry x="360" y="160" width="100" height="20" as="geometry" />
        </mxCell>
        <mxCell id="FgFwYtZASVYuj0qQYSt3-45" style="edgeStyle=orthogonalEdgeStyle;rounded=1;orthogonalLoop=1;jettySize=auto;html=1;exitX=0.5;exitY=1;exitDx=0;exitDy=0;entryX=0.5;entryY=0;entryDx=0;entryDy=0;" edge="1" parent="1" source="FgFwYtZASVYuj0qQYSt3-47" target="FgFwYtZASVYuj0qQYSt3-54">
          <mxGeometry relative="1" as="geometry" />
        </mxCell>
        <mxCell id="FgFwYtZASVYuj0qQYSt3-46" style="edgeStyle=orthogonalEdgeStyle;rounded=1;orthogonalLoop=1;jettySize=auto;html=1;exitX=1;exitY=0.5;exitDx=0;exitDy=0;entryX=0;entryY=0.5;entryDx=0;entryDy=0;jumpStyle=arc;fillColor=#dae8fc;strokeColor=#6c8ebf;" edge="1" parent="1" source="FgFwYtZASVYuj0qQYSt3-47" target="FgFwYtZASVYuj0qQYSt3-55">
          <mxGeometry relative="1" as="geometry" />
        </mxCell>
        <mxCell id="FgFwYtZASVYuj0qQYSt3-47" value="FetchChangedHotels" style="rounded=1;whiteSpace=wrap;html=1;fillColor=#dae8fc;strokeColor=#6c8ebf;" vertex="1" parent="1">
          <mxGeometry x="630" y="810" width="125" height="40" as="geometry" />
        </mxCell>
        <mxCell id="FgFwYtZASVYuj0qQYSt3-48" style="edgeStyle=orthogonalEdgeStyle;rounded=1;orthogonalLoop=1;jettySize=auto;html=1;exitX=1;exitY=0.5;exitDx=0;exitDy=0;entryX=0;entryY=0.5;entryDx=0;entryDy=0;fillColor=#dae8fc;strokeColor=#6c8ebf;" edge="1" parent="1" source="FgFwYtZASVYuj0qQYSt3-50" target="FgFwYtZASVYuj0qQYSt3-47">
          <mxGeometry relative="1" as="geometry" />
        </mxCell>
        <mxCell id="FgFwYtZASVYuj0qQYSt3-49" style="edgeStyle=orthogonalEdgeStyle;rounded=1;jumpStyle=arc;orthogonalLoop=1;jettySize=auto;html=1;exitX=0.5;exitY=1;exitDx=0;exitDy=0;" edge="1" parent="1" source="FgFwYtZASVYuj0qQYSt3-50">
          <mxGeometry relative="1" as="geometry">
            <mxPoint x="424" y="680" as="targetPoint" />
          </mxGeometry>
        </mxCell>
        <mxCell id="FgFwYtZASVYuj0qQYSt3-50" value="拉取变换&lt;br&gt;hotellist" style="rounded=1;whiteSpace=wrap;html=1;fillColor=#dae8fc;strokeColor=#6c8ebf;" vertex="1" parent="1">
          <mxGeometry x="369.5" y="610" width="110.5" height="45" as="geometry" />
        </mxCell>
        <mxCell id="FgFwYtZASVYuj0qQYSt3-51" style="edgeStyle=orthogonalEdgeStyle;rounded=1;jumpStyle=arc;orthogonalLoop=1;jettySize=auto;html=1;exitX=1;exitY=0.5;exitDx=0;exitDy=0;entryX=0;entryY=0.5;entryDx=0;entryDy=0;" edge="1" parent="1" source="FgFwYtZASVYuj0qQYSt3-52" target="FgFwYtZASVYuj0qQYSt3-74">
          <mxGeometry relative="1" as="geometry" />
        </mxCell>
        <mxCell id="FgFwYtZASVYuj0qQYSt3-52" value="Raw MQ" style="shape=process;whiteSpace=wrap;html=1;backgroundOutline=1;" vertex="1" parent="1">
          <mxGeometry x="875" y="740" width="85" height="50" as="geometry" />
        </mxCell>
        <mxCell id="FgFwYtZASVYuj0qQYSt3-53" style="edgeStyle=orthogonalEdgeStyle;rounded=1;orthogonalLoop=1;jettySize=auto;html=1;exitX=1;exitY=0.5;exitDx=0;exitDy=0;entryX=0;entryY=0.75;entryDx=0;entryDy=0;fillColor=#dae8fc;strokeColor=#6c8ebf;" edge="1" parent="1" source="FgFwYtZASVYuj0qQYSt3-54" target="FgFwYtZASVYuj0qQYSt3-52">
          <mxGeometry relative="1" as="geometry" />
        </mxCell>
        <mxCell id="FgFwYtZASVYuj0qQYSt3-54" value="遍历下线的hotel" style="rounded=1;whiteSpace=wrap;html=1;fillColor=#dae8fc;strokeColor=#6c8ebf;" vertex="1" parent="1">
          <mxGeometry x="630" y="880" width="125" height="40" as="geometry" />
        </mxCell>
        <mxCell id="FgFwYtZASVYuj0qQYSt3-55" value="feed32" style="rounded=1;whiteSpace=wrap;html=1;fillColor=#dae8fc;strokeColor=#6c8ebf;" vertex="1" parent="1">
          <mxGeometry x="860" y="485" width="110" height="35" as="geometry" />
        </mxCell>
        <mxCell id="FgFwYtZASVYuj0qQYSt3-56" style="edgeStyle=orthogonalEdgeStyle;rounded=1;jumpStyle=arc;orthogonalLoop=1;jettySize=auto;html=1;exitX=1;exitY=0.5;exitDx=0;exitDy=0;entryX=0.007;entryY=0.598;entryDx=0;entryDy=0;entryPerimeter=0;fillColor=#dae8fc;strokeColor=#6c8ebf;" edge="1" parent="1" source="FgFwYtZASVYuj0qQYSt3-57" target="FgFwYtZASVYuj0qQYSt3-17">
          <mxGeometry relative="1" as="geometry" />
        </mxCell>
        <mxCell id="FgFwYtZASVYuj0qQYSt3-57" value="异步同步&lt;br&gt;updated 和 new hotel" style="rounded=1;whiteSpace=wrap;html=1;fillColor=#dae8fc;strokeColor=#6c8ebf;" vertex="1" parent="1">
          <mxGeometry x="370.5" y="760" width="109" height="52" as="geometry" />
        </mxCell>
        <mxCell id="FgFwYtZASVYuj0qQYSt3-58" style="edgeStyle=orthogonalEdgeStyle;rounded=1;jumpStyle=arc;orthogonalLoop=1;jettySize=auto;html=1;exitX=0.5;exitY=1;exitDx=0;exitDy=0;" edge="1" parent="1" source="FgFwYtZASVYuj0qQYSt3-59" target="FgFwYtZASVYuj0qQYSt3-57">
          <mxGeometry relative="1" as="geometry" />
        </mxCell>
        <mxCell id="FgFwYtZASVYuj0qQYSt3-59" value="遍历changed&amp;nbsp;&lt;br&gt;hotellist" style="rounded=1;whiteSpace=wrap;html=1;fillColor=#dae8fc;strokeColor=#6c8ebf;" vertex="1" parent="1">
          <mxGeometry x="371" y="680" width="109" height="50" as="geometry" />
        </mxCell>
        <mxCell id="FgFwYtZASVYuj0qQYSt3-60" value="IncrementSyncHotels：" style="text;html=1;strokeColor=none;fillColor=none;align=center;verticalAlign=middle;whiteSpace=wrap;rounded=0;" vertex="1" parent="1">
          <mxGeometry x="360" y="570" width="110" height="30" as="geometry" />
        </mxCell>
        <mxCell id="FgFwYtZASVYuj0qQYSt3-61" value="&lt;span style=&quot;color: rgb(0, 0, 0); font-family: Helvetica; font-size: 12px; font-style: normal; font-variant-ligatures: normal; font-variant-caps: normal; font-weight: 400; letter-spacing: normal; orphans: 2; text-align: center; text-indent: 0px; text-transform: none; widows: 2; word-spacing: 0px; -webkit-text-stroke-width: 0px; background-color: rgb(248, 249, 250); text-decoration-thickness: initial; text-decoration-style: initial; text-decoration-color: initial; float: none; display: inline !important;&quot;&gt;FullSyncHotels：&lt;/span&gt;" style="text;whiteSpace=wrap;html=1;" vertex="1" parent="1">
          <mxGeometry x="350" y="190" width="90" height="30" as="geometry" />
        </mxCell>
        <mxCell id="FgFwYtZASVYuj0qQYSt3-62" value="&lt;span style=&quot;color: rgb(0, 0, 0); font-family: Helvetica; font-size: 12px; font-style: normal; font-variant-ligatures: normal; font-variant-caps: normal; font-weight: 400; letter-spacing: normal; orphans: 2; text-align: center; text-indent: 0px; text-transform: none; widows: 2; word-spacing: 0px; -webkit-text-stroke-width: 0px; background-color: rgb(248, 249, 250); text-decoration-thickness: initial; text-decoration-style: initial; text-decoration-color: initial; float: none; display: inline !important;&quot;&gt;itemfetch-server&lt;/span&gt;" style="text;whiteSpace=wrap;html=1;" vertex="1" parent="1">
          <mxGeometry x="620" y="250" width="100" height="30" as="geometry" />
        </mxCell>
        <mxCell id="FgFwYtZASVYuj0qQYSt3-63" value="hub/supplier" style="text;html=1;strokeColor=none;fillColor=none;align=center;verticalAlign=middle;whiteSpace=wrap;rounded=0;" vertex="1" parent="1">
          <mxGeometry x="860" y="287" width="60" height="30" as="geometry" />
        </mxCell>
        <mxCell id="FgFwYtZASVYuj0qQYSt3-64" value="消费processedMQ" style="rounded=1;whiteSpace=wrap;html=1;strokeColor=#1A1A1A;fillColor=#FFFFFF;" vertex="1" parent="1">
          <mxGeometry x="1325" y="560" width="120" height="37" as="geometry" />
        </mxCell>
        <mxCell id="FgFwYtZASVYuj0qQYSt3-65" value="补全依赖信息" style="rounded=1;whiteSpace=wrap;html=1;strokeColor=#1A1A1A;fillColor=#FFFFFF;" vertex="1" parent="1">
          <mxGeometry x="1325" y="620" width="120" height="30.5" as="geometry" />
        </mxCell>
        <mxCell id="FgFwYtZASVYuj0qQYSt3-66" style="edgeStyle=orthogonalEdgeStyle;rounded=1;jumpStyle=arc;orthogonalLoop=1;jettySize=auto;html=1;exitX=1;exitY=0.5;exitDx=0;exitDy=0;entryX=0;entryY=0.5;entryDx=0;entryDy=0;entryPerimeter=0;" edge="1" parent="1" source="FgFwYtZASVYuj0qQYSt3-67" target="FgFwYtZASVYuj0qQYSt3-89">
          <mxGeometry relative="1" as="geometry" />
        </mxCell>
        <mxCell id="FgFwYtZASVYuj0qQYSt3-67" value="Upsert DB" style="rounded=1;whiteSpace=wrap;html=1;strokeColor=#1A1A1A;fillColor=#FFFFFF;" vertex="1" parent="1">
          <mxGeometry x="1325" y="668" width="120" height="40" as="geometry" />
        </mxCell>
        <mxCell id="FgFwYtZASVYuj0qQYSt3-68" style="edgeStyle=orthogonalEdgeStyle;rounded=1;jumpStyle=arc;orthogonalLoop=1;jettySize=auto;html=1;exitX=1;exitY=0.5;exitDx=0;exitDy=0;entryX=0;entryY=0;entryDx=0;entryDy=41.25;entryPerimeter=0;" edge="1" parent="1" source="FgFwYtZASVYuj0qQYSt3-69" target="FgFwYtZASVYuj0qQYSt3-90">
          <mxGeometry relative="1" as="geometry" />
        </mxCell>
        <mxCell id="FgFwYtZASVYuj0qQYSt3-69" value="Upsert ES" style="rounded=1;whiteSpace=wrap;html=1;strokeColor=#1A1A1A;fillColor=#FFFFFF;" vertex="1" parent="1">
          <mxGeometry x="1325" y="728" width="120" height="40" as="geometry" />
        </mxCell>
        <mxCell id="FgFwYtZASVYuj0qQYSt3-70" style="edgeStyle=orthogonalEdgeStyle;rounded=1;jumpStyle=arc;orthogonalLoop=1;jettySize=auto;html=1;exitX=1;exitY=0.5;exitDx=0;exitDy=0;entryX=0;entryY=0.556;entryDx=0;entryDy=0;entryPerimeter=0;" edge="1" parent="1" source="FgFwYtZASVYuj0qQYSt3-71" target="FgFwYtZASVYuj0qQYSt3-1">
          <mxGeometry relative="1" as="geometry" />
        </mxCell>
        <mxCell id="FgFwYtZASVYuj0qQYSt3-71" value="Processed MQ" style="shape=process;whiteSpace=wrap;html=1;backgroundOutline=1;" vertex="1" parent="1">
          <mxGeometry x="1190" y="640" width="90" height="40" as="geometry" />
        </mxCell>
        <mxCell id="FgFwYtZASVYuj0qQYSt3-72" value="onlinedatasync-server" style="text;html=1;strokeColor=none;fillColor=none;align=center;verticalAlign=middle;whiteSpace=wrap;rounded=0;" vertex="1" parent="1">
          <mxGeometry x="1310" y="520" width="150" height="30" as="geometry" />
        </mxCell>
        <mxCell id="FgFwYtZASVYuj0qQYSt3-73" value="" style="group" vertex="1" connectable="0" parent="1">
          <mxGeometry x="1000" y="570" width="160" height="270" as="geometry" />
        </mxCell>
        <mxCell id="FgFwYtZASVYuj0qQYSt3-74" value="" style="rounded=0;whiteSpace=wrap;html=1;strokeColor=#d6b656;fillColor=#fff2cc;" vertex="1" parent="FgFwYtZASVYuj0qQYSt3-73">
          <mxGeometry width="150" height="270" as="geometry" />
        </mxCell>
        <mxCell id="FgFwYtZASVYuj0qQYSt3-75" value="消费rawMQ" style="rounded=1;whiteSpace=wrap;html=1;strokeColor=#1A1A1A;fillColor=#FFFFFF;" vertex="1" parent="FgFwYtZASVYuj0qQYSt3-73">
          <mxGeometry x="20" y="35" width="110" height="40" as="geometry" />
        </mxCell>
        <mxCell id="FgFwYtZASVYuj0qQYSt3-76" value="判断是否需要新增shopee" style="rounded=1;whiteSpace=wrap;html=1;strokeColor=#1A1A1A;fillColor=#FFFFFF;" vertex="1" parent="FgFwYtZASVYuj0qQYSt3-73">
          <mxGeometry x="20" y="95" width="110" height="40" as="geometry" />
        </mxCell>
        <mxCell id="FgFwYtZASVYuj0qQYSt3-77" value="mapping" style="rounded=1;whiteSpace=wrap;html=1;strokeColor=#1A1A1A;fillColor=#FFFFFF;" vertex="1" parent="FgFwYtZASVYuj0qQYSt3-73">
          <mxGeometry x="20" y="155" width="110" height="30" as="geometry" />
        </mxCell>
        <mxCell id="FgFwYtZASVYuj0qQYSt3-78" value="构造shopee content" style="rounded=1;whiteSpace=wrap;html=1;strokeColor=#1A1A1A;fillColor=#FFFFFF;" vertex="1" parent="FgFwYtZASVYuj0qQYSt3-73">
          <mxGeometry x="20" y="205" width="110" height="40" as="geometry" />
        </mxCell>
        <mxCell id="FgFwYtZASVYuj0qQYSt3-79" value="realtimecomputing-server" style="text;html=1;strokeColor=none;fillColor=none;align=center;verticalAlign=middle;whiteSpace=wrap;rounded=0;" vertex="1" parent="FgFwYtZASVYuj0qQYSt3-73">
          <mxGeometry width="160" height="35" as="geometry" />
        </mxCell>
        <mxCell id="FgFwYtZASVYuj0qQYSt3-80" style="edgeStyle=orthogonalEdgeStyle;rounded=1;jumpStyle=arc;orthogonalLoop=1;jettySize=auto;html=1;exitX=1;exitY=0.5;exitDx=0;exitDy=0;entryX=0;entryY=0.5;entryDx=0;entryDy=0;" edge="1" parent="1" source="FgFwYtZASVYuj0qQYSt3-81" target="FgFwYtZASVYuj0qQYSt3-86">
          <mxGeometry relative="1" as="geometry" />
        </mxCell>
        <mxCell id="FgFwYtZASVYuj0qQYSt3-81" value="image-MQ" style="shape=process;whiteSpace=wrap;html=1;backgroundOutline=1;strokeColor=#1A1A1A;fillColor=#FFFFFF;" vertex="1" parent="1">
          <mxGeometry x="1100" y="880" width="90" height="40" as="geometry" />
        </mxCell>
        <mxCell id="FgFwYtZASVYuj0qQYSt3-82" style="edgeStyle=orthogonalEdgeStyle;rounded=1;jumpStyle=arc;orthogonalLoop=1;jettySize=auto;html=1;exitX=0.5;exitY=1;exitDx=0;exitDy=0;entryX=0;entryY=0.5;entryDx=0;entryDy=0;" edge="1" parent="1" source="FgFwYtZASVYuj0qQYSt3-74" target="FgFwYtZASVYuj0qQYSt3-81">
          <mxGeometry relative="1" as="geometry" />
        </mxCell>
        <mxCell id="FgFwYtZASVYuj0qQYSt3-83" style="edgeStyle=orthogonalEdgeStyle;rounded=1;jumpStyle=arc;orthogonalLoop=1;jettySize=auto;html=1;exitX=0.5;exitY=0;exitDx=0;exitDy=0;entryX=0.5;entryY=1;entryDx=0;entryDy=0;" edge="1" parent="1" source="FgFwYtZASVYuj0qQYSt3-86" target="FgFwYtZASVYuj0qQYSt3-71">
          <mxGeometry relative="1" as="geometry" />
        </mxCell>
        <mxCell id="FgFwYtZASVYuj0qQYSt3-84" style="edgeStyle=orthogonalEdgeStyle;rounded=1;jumpStyle=arc;orthogonalLoop=1;jettySize=auto;html=1;exitX=1;exitY=0.5;exitDx=0;exitDy=0;entryX=0;entryY=0;entryDx=0;entryDy=37.5;entryPerimeter=0;" edge="1" parent="1" source="FgFwYtZASVYuj0qQYSt3-86" target="FgFwYtZASVYuj0qQYSt3-87">
          <mxGeometry relative="1" as="geometry" />
        </mxCell>
        <mxCell id="FgFwYtZASVYuj0qQYSt3-85" style="edgeStyle=orthogonalEdgeStyle;rounded=1;jumpStyle=arc;orthogonalLoop=1;jettySize=auto;html=1;exitX=1;exitY=0.75;exitDx=0;exitDy=0;entryX=0;entryY=0;entryDx=0;entryDy=37.5;entryPerimeter=0;" edge="1" parent="1" source="FgFwYtZASVYuj0qQYSt3-86" target="FgFwYtZASVYuj0qQYSt3-88">
          <mxGeometry relative="1" as="geometry" />
        </mxCell>
        <mxCell id="FgFwYtZASVYuj0qQYSt3-86" value="imageprocessing-server" style="rounded=0;whiteSpace=wrap;html=1;strokeColor=#d6b656;fillColor=#fff2cc;" vertex="1" parent="1">
          <mxGeometry x="1220" y="870" width="140" height="60" as="geometry" />
        </mxCell>
        <mxCell id="FgFwYtZASVYuj0qQYSt3-87" value="S3" style="shape=cylinder3;whiteSpace=wrap;html=1;boundedLbl=1;backgroundOutline=1;size=15;strokeColor=#1A1A1A;fillColor=#FFFFFF;" vertex="1" parent="1">
          <mxGeometry x="1410" y="820" width="60" height="60" as="geometry" />
        </mxCell>
        <mxCell id="FgFwYtZASVYuj0qQYSt3-88" value="CDN" style="shape=cylinder3;whiteSpace=wrap;html=1;boundedLbl=1;backgroundOutline=1;size=15;strokeColor=#1A1A1A;fillColor=#FFFFFF;" vertex="1" parent="1">
          <mxGeometry x="1410" y="890" width="60" height="60" as="geometry" />
        </mxCell>
        <mxCell id="FgFwYtZASVYuj0qQYSt3-89" value="hotelDB" style="shape=cylinder3;whiteSpace=wrap;html=1;boundedLbl=1;backgroundOutline=1;size=15;strokeColor=#1A1A1A;fillColor=#FFFFFF;" vertex="1" parent="1">
          <mxGeometry x="1495" y="545" width="60" height="80" as="geometry" />
        </mxCell>
        <mxCell id="FgFwYtZASVYuj0qQYSt3-90" value="ES" style="shape=cylinder3;whiteSpace=wrap;html=1;boundedLbl=1;backgroundOutline=1;size=15;strokeColor=#1A1A1A;fillColor=#FFFFFF;" vertex="1" parent="1">
          <mxGeometry x="1495" y="660" width="60" height="65" as="geometry" />
        </mxCell>
      </root>
    </mxGraphModel>
  </diagram>
</mxfile>
